<?xml version="1.0" encoding="utf-8"?>
<!-- Generator: Adobe Illustrator 17.0.0, SVG Export Plug-In . SVG Version: 6.00 Build 0)  -->
<!DOCTYPE svg PUBLIC "-//W3C//DTD SVG 1.1//EN" "http://www.w3.org/Graphics/SVG/1.1/DTD/svg11.dtd">
<svg version="1.1" id="Layer_1" xmlns="http://www.w3.org/2000/svg" xmlns:xlink="http://www.w3.org/1999/xlink" x="0px" y="0px"
	 width="961.2px" height="160px" viewBox="0 0 961.2 160" enable-background="new 0 0 961.2 160" xml:space="preserve">
<g opacity="0.4">
	
		<line fill="none" stroke="#000000" stroke-width="2" stroke-linecap="round" stroke-linejoin="round" stroke-miterlimit="10" x1="465.988" y1="155.889" x2="465.988" y2="159.615"/>
	
		<line fill="none" stroke="#000000" stroke-width="2" stroke-linecap="round" stroke-linejoin="round" stroke-miterlimit="10" x1="536.781" y1="155.889" x2="536.781" y2="159.615"/>
	<path fill="none" stroke="#000000" stroke-width="2" stroke-linecap="round" stroke-linejoin="round" stroke-miterlimit="10" d="
		M499.522,133.533c0,8.231-6.673,14.904-14.904,14.904c-8.227,0-14.904-6.673-14.904-14.904c0-8.232,6.677-14.904,14.904-14.904
		C492.849,118.63,499.522,125.302,499.522,133.533z"/>
	<path fill="none" stroke="#000000" stroke-width="2" stroke-linecap="round" stroke-linejoin="round" stroke-miterlimit="10" d="
		M499.052,129.807h37.729c4.099,0,7.452,3.353,7.452,7.452v11.178c0,4.099-3.353,7.452-7.452,7.452h-70.793
		c-4.099,0-7.452-3.353-7.452-7.452v-11.178c0-4.099,2.621-7.452,5.825-7.452s5.826,0,5.826,0"/>
	<path fill="none" stroke="#000000" stroke-width="2" stroke-linecap="round" stroke-linejoin="round" stroke-miterlimit="10" d="
		M492.07,133.533c0,4.114-3.333,7.452-7.452,7.452c-4.112,0-7.452-3.338-7.452-7.452c0-4.117,3.34-7.452,7.452-7.452
		C488.737,126.081,492.07,129.416,492.07,133.533z"/>
	
		<line fill="none" stroke="#000000" stroke-width="2" stroke-linecap="round" stroke-linejoin="round" stroke-miterlimit="10" x1="533.055" y1="137.259" x2="533.055" y2="148.438"/>
	
		<line fill="none" stroke="#000000" stroke-width="2" stroke-linecap="round" stroke-linejoin="round" stroke-miterlimit="10" x1="525.604" y1="137.259" x2="525.604" y2="148.438"/>
	
		<line fill="none" stroke="#000000" stroke-width="2" stroke-linecap="round" stroke-linejoin="round" stroke-miterlimit="10" x1="518.152" y1="137.259" x2="518.152" y2="148.438"/>
	
		<line fill="none" stroke="#000000" stroke-width="2" stroke-linecap="round" stroke-linejoin="round" stroke-miterlimit="10" x1="510.7" y1="137.259" x2="510.7" y2="148.438"/>
</g>
<g opacity="0.4">
	<path fill="none" stroke="#000000" stroke-width="2" stroke-linecap="round" stroke-linejoin="round" stroke-miterlimit="10" d="
		M960.2,137.922c0,5.059-3.872,9.16-8.65,9.16H836.217c-4.778,0-8.65-4.101-8.65-9.16v-85.48c0-5.06,3.872-9.16,8.65-9.16H951.55
		c4.778,0,8.65,4.1,8.65,9.16V137.922z"/>
	
		<line fill="none" stroke="#000000" stroke-width="2" stroke-linecap="round" stroke-linejoin="round" stroke-miterlimit="10" x1="853.517" y1="158.615" x2="934.25" y2="158.615"/>
	
		<line fill="none" stroke="#000000" stroke-width="2" stroke-linecap="round" stroke-linejoin="round" stroke-miterlimit="10" x1="893.883" y1="147.081" x2="893.883" y2="158.615"/>
	<circle fill="none" stroke="#000000" stroke-width="2" stroke-miterlimit="10" cx="893.883" cy="135.548" r="2.883"/>
	<line fill="none" stroke="#000000" stroke-width="2" stroke-miterlimit="10" x1="827.567" y1="124.015" x2="960.2" y2="124.015"/>
</g>
<g opacity="0.4">
	<path fill="none" stroke="#000000" stroke-width="2" stroke-linecap="round" stroke-miterlimit="10" d="M36.248,148.962
		l79.552-0.254c4.51-0.014,8.2-3.716,8.2-8.226v-98.4c0-4.51-3.69-8.2-8.2-8.2H44.733c-4.51,0-8.2,3.69-8.2,8.2v73.911"/>
	<polyline fill="none" stroke="#000000" stroke-width="2" stroke-linecap="round" stroke-miterlimit="10" points="44.733,126.816 
		113.067,126.816 113.067,44.816 47.467,44.816 47.467,107.682 	"/>
	<path fill="none" stroke="#000000" stroke-width="2" stroke-linecap="round" stroke-miterlimit="10" d="M1,159.615l16.4-21.867
		v-24.919c0-9.264,8.646-18.064,19.133-27.014"/>
	<path fill="none" stroke="#000000" stroke-width="2" stroke-linecap="round" stroke-miterlimit="10" d="M31.067,121.348l12.3-12.3
		c2.266-2.265,5.94-2.265,8.2,0c2.266,2.262,1.367,6.833,0,8.2l-12.3,17.767c0,0,0,0,0,5.467s-10.933,19.133-10.933,19.133"/>
	<line fill="none" stroke="#000000" stroke-width="2" stroke-miterlimit="10" x1="91.2" y1="137.749" x2="74.8" y2="137.749"/>
	<g>
		<path fill="#231F20" stroke="#000000" stroke-miterlimit="10" d="M99.4,135.016c1.513,0,2.733,1.225,2.733,2.733
			c0,1.507-1.22,2.733-2.733,2.733c-1.509,0-2.733-1.226-2.733-2.733C96.667,136.24,97.891,135.016,99.4,135.016L99.4,135.016z"/>
	</g>
	<g>
		<path fill="#231F20" stroke="#000000" stroke-miterlimit="10" d="M66.6,135.016c1.513,0,2.733,1.225,2.733,2.733
			c0,1.507-1.22,2.733-2.733,2.733c-1.509,0-2.733-1.226-2.733-2.733C63.867,136.24,65.091,135.016,66.6,135.016L66.6,135.016z"/>
	</g>
	<line fill="none" stroke="#000000" stroke-width="2" stroke-miterlimit="10" x1="99.4" y1="104.949" x2="61.133" y2="104.949"/>
	<line fill="none" stroke="#000000" stroke-width="2" stroke-miterlimit="10" x1="99.4" y1="94.016" x2="61.133" y2="94.016"/>
	<line fill="none" stroke="#000000" stroke-width="2" stroke-miterlimit="10" x1="99.4" y1="83.082" x2="61.133" y2="83.082"/>
	<line fill="none" stroke="#000000" stroke-width="2" stroke-miterlimit="10" x1="99.4" y1="72.149" x2="61.133" y2="72.149"/>
	<line fill="none" stroke="#000000" stroke-width="2" stroke-miterlimit="10" x1="99.4" y1="61.216" x2="77.533" y2="61.216"/>
</g>
<g opacity="0.4">
	<path fill="none" stroke="#000000" stroke-width="2" stroke-linecap="round" stroke-linejoin="round" stroke-miterlimit="10" d="
		M426.9,123.615v28c0,4.4-3.6,8-8,8h-4c-4.4,0-8-3.6-8-8v-28"/>
	
		<rect x="410.9" y="113.615" fill="none" stroke="#000000" stroke-width="2" stroke-linecap="round" stroke-linejoin="round" stroke-miterlimit="10" width="12" height="10"/>
	
		<line fill="none" stroke="#000000" stroke-width="2" stroke-linecap="round" stroke-linejoin="round" stroke-miterlimit="10" x1="414.9" y1="117.615" x2="414.9" y2="119.615"/>
	
		<line fill="none" stroke="#000000" stroke-width="2" stroke-linecap="round" stroke-linejoin="round" stroke-miterlimit="10" x1="418.9" y1="117.615" x2="418.9" y2="119.615"/>
	
		<line fill="none" stroke="#000000" stroke-width="2" stroke-linecap="round" stroke-linejoin="round" stroke-miterlimit="10" x1="406.9" y1="123.615" x2="426.9" y2="123.615"/>
	
		<line fill="none" stroke="#000000" stroke-width="2" stroke-linecap="round" stroke-linejoin="round" stroke-miterlimit="10" x1="410.9" y1="127.615" x2="422.9" y2="127.615"/>
</g>
<g opacity="0.4">
	<path fill="none" stroke="#000000" stroke-width="2" stroke-linecap="round" stroke-linejoin="round" stroke-miterlimit="10" d="
		M214.436,36.177c0-2.799-2.269-5.09-5.044-5.09H161.48c-2.774,0-5.044,2.29-5.044,5.09v15.271c0,2.799,2.269,5.09,5.044,5.09
		h47.913c2.774,0,5.044-2.29,5.044-5.09L214.436,36.177L214.436,36.177z"/>
	<g>
		<polygon fill="#231F20" stroke="#000000" stroke-miterlimit="10" points="182.914,34.905 180.393,34.905 180.393,37.45 
			182.914,37.45 		"/>
	</g>
	<g>
		<polygon fill="#231F20" stroke="#000000" stroke-miterlimit="10" points="190.48,34.905 187.958,34.905 187.958,37.45 
			190.48,37.45 		"/>
	</g>
	<g>
		<polygon fill="#231F20" stroke="#000000" stroke-miterlimit="10" points="198.045,34.905 195.523,34.905 195.523,37.45 
			198.045,37.45 		"/>
	</g>
	<g>
		<polygon fill="#231F20" stroke="#000000" stroke-miterlimit="10" points="205.61,34.905 203.088,34.905 203.088,37.45 
			205.61,37.45 		"/>
	</g>
	<g>
		<polygon fill="#231F20" stroke="#000000" stroke-miterlimit="10" points="175.349,34.905 172.827,34.905 172.827,37.45 
			175.349,37.45 		"/>
	</g>
	<g>
		<polygon fill="#231F20" stroke="#000000" stroke-miterlimit="10" points="167.784,34.905 165.262,34.905 165.262,37.45 
			167.784,37.45 		"/>
	</g>
	<g>
		<polygon fill="#231F20" stroke="#000000" stroke-miterlimit="10" points="182.914,39.995 180.393,39.995 180.393,42.54 
			182.914,42.54 		"/>
	</g>
	<g>
		<polygon fill="#231F20" stroke="#000000" stroke-miterlimit="10" points="190.48,39.995 187.958,39.995 187.958,42.54 
			190.48,42.54 		"/>
	</g>
	<g>
		<polygon fill="#231F20" stroke="#000000" stroke-miterlimit="10" points="198.045,39.995 195.523,39.995 195.523,42.54 
			198.045,42.54 		"/>
	</g>
	<g>
		<polygon fill="#231F20" stroke="#000000" stroke-miterlimit="10" points="205.61,39.995 203.088,39.995 203.088,42.54 
			205.61,42.54 		"/>
	</g>
	<g>
		<polygon fill="#231F20" stroke="#000000" stroke-miterlimit="10" points="175.349,39.995 172.827,39.995 172.827,42.54 
			175.349,42.54 		"/>
	</g>
	<g>
		<polygon fill="#231F20" stroke="#000000" stroke-miterlimit="10" points="167.784,39.995 165.262,39.995 165.262,42.54 
			167.784,42.54 		"/>
	</g>
	<g>
		<polygon fill="#231F20" stroke="#000000" stroke-miterlimit="10" points="182.914,45.085 180.393,45.085 180.393,47.631 
			182.914,47.631 		"/>
	</g>
	<g>
		<polygon fill="#231F20" stroke="#000000" stroke-miterlimit="10" points="190.48,45.085 187.958,45.085 187.958,47.631 
			190.48,47.631 		"/>
	</g>
	<g>
		<polygon fill="#231F20" stroke="#000000" stroke-miterlimit="10" points="198.045,45.085 195.523,45.085 195.523,47.631 
			198.045,47.631 		"/>
	</g>
	<g>
		<polygon fill="#231F20" stroke="#000000" stroke-miterlimit="10" points="205.61,45.085 203.088,45.085 203.088,47.631 
			205.61,47.631 		"/>
	</g>
	<g>
		<polygon fill="#231F20" stroke="#000000" stroke-miterlimit="10" points="175.349,45.085 172.827,45.085 172.827,47.631 
			175.349,47.631 		"/>
	</g>
	<g>
		<polygon fill="#231F20" stroke="#000000" stroke-miterlimit="10" points="167.784,45.085 165.262,45.085 165.262,47.631 
			167.784,47.631 		"/>
	</g>
	<path fill="none" stroke="#000000" stroke-width="2" stroke-linecap="round" stroke-linejoin="round" stroke-miterlimit="10" d="
		M164.001,31.087v-2.545c0-4.218,3.389-7.635,7.565-7.635h34.044c4.876,0,8.826-3.988,8.826-8.908s-3.95-8.908-8.826-8.908h-16.391
		c-2.088,0-3.783-1.71-3.783-3.818V-2"/>
	<line fill="none" stroke="#000000" stroke-width="2" stroke-miterlimit="10" x1="167.784" y1="51.448" x2="203.088" y2="51.448"/>
</g>
<g opacity="0.4">
	<path fill="none" stroke="#000000" stroke-width="2" stroke-linecap="round" stroke-linejoin="round" stroke-miterlimit="10" d="
		M799.476,159.556l-8.475-11.866v-15.454c0-5.745-5.36-8.607-11.866-14.158"/>
	<path fill="none" stroke="#000000" stroke-width="2" stroke-linecap="round" stroke-miterlimit="10" d="M784.221,139.215
		l-9.323-9.323c-1.404-1.405-3.682-1.405-5.085,0c-1.404,1.403-1.404,3.681,0,5.085l7.628,11.018v5.216
		c0,2.119,0.662,4.187,1.89,5.911l1.785,2.493"/>
	<path fill="none" stroke="#000000" stroke-width="2" stroke-linecap="round" stroke-miterlimit="10" d="M768.965,152.775h-18.646
		c-2.797,0-5.085-2.288-5.085-5.085v-37.292c0-2.797,2.288-5.085,5.085-5.085h23.731c2.797,0,5.085,2.288,5.085,5.085v16.944"/>
	<g>
		<path fill="#231F20" stroke="#000000" stroke-miterlimit="10" d="M755.404,113.788c-0.937,0-1.695,0.76-1.695,1.695
			c0,0.935,0.758,1.695,1.695,1.695s1.695-0.761,1.695-1.695C757.099,114.548,756.341,113.788,755.404,113.788L755.404,113.788z"/>
	</g>
	<g>
		<path fill="#231F20" stroke="#000000" stroke-miterlimit="10" d="M762.184,113.788c-0.937,0-1.695,0.76-1.695,1.695
			c0,0.935,0.758,1.695,1.695,1.695s1.695-0.761,1.695-1.695C763.879,114.548,763.121,113.788,762.184,113.788L762.184,113.788z"/>
	</g>
	<g>
		<path fill="#231F20" stroke="#000000" stroke-miterlimit="10" d="M768.965,113.788c-0.937,0-1.695,0.76-1.695,1.695
			c0,0.935,0.758,1.695,1.695,1.695s1.695-0.761,1.695-1.695C770.66,114.548,769.902,113.788,768.965,113.788L768.965,113.788z"/>
	</g>
	<g>
		<path fill="#231F20" stroke="#000000" stroke-miterlimit="10" d="M755.404,120.569c-0.937,0-1.695,0.76-1.695,1.695
			c0,0.935,0.758,1.695,1.695,1.695s1.695-0.761,1.695-1.695C757.099,121.328,756.341,120.569,755.404,120.569L755.404,120.569z"/>
	</g>
	<g>
		<path fill="#231F20" stroke="#000000" stroke-miterlimit="10" d="M755.404,127.349c-0.937,0-1.695,0.76-1.695,1.695
			c0,0.935,0.758,1.695,1.695,1.695s1.695-0.761,1.695-1.695C757.099,128.109,756.341,127.349,755.404,127.349L755.404,127.349z"/>
	</g>
	<g>
		<path fill="#231F20" stroke="#000000" stroke-miterlimit="10" d="M755.404,134.129c-0.937,0-1.695,0.76-1.695,1.695
			c0,0.935,0.758,1.695,1.695,1.695s1.695-0.761,1.695-1.695C757.099,134.889,756.341,134.129,755.404,134.129L755.404,134.129z"/>
	</g>
	<g>
		<path fill="#231F20" stroke="#000000" stroke-miterlimit="10" d="M755.404,140.91c-0.937,0-1.695,0.76-1.695,1.695
			c0,0.935,0.758,1.695,1.695,1.695s1.695-0.761,1.695-1.695C757.099,141.67,756.341,140.91,755.404,140.91L755.404,140.91z"/>
	</g>
	<g>
		<path fill="#231F20" stroke="#000000" stroke-miterlimit="10" d="M762.184,120.569c-0.937,0-1.695,0.76-1.695,1.695
			c0,0.935,0.758,1.695,1.695,1.695s1.695-0.761,1.695-1.695C763.879,121.328,763.121,120.569,762.184,120.569L762.184,120.569z"/>
	</g>
	<g>
		<path fill="#231F20" stroke="#000000" stroke-miterlimit="10" d="M762.184,127.349c-0.937,0-1.695,0.76-1.695,1.695
			c0,0.935,0.758,1.695,1.695,1.695s1.695-0.761,1.695-1.695C763.879,128.109,763.121,127.349,762.184,127.349L762.184,127.349z"/>
	</g>
	<g>
		<path fill="#231F20" stroke="#000000" stroke-miterlimit="10" d="M762.184,134.129c-0.937,0-1.695,0.76-1.695,1.695
			c0,0.935,0.758,1.695,1.695,1.695s1.695-0.761,1.695-1.695C763.879,134.889,763.121,134.129,762.184,134.129L762.184,134.129z"/>
	</g>
	<g>
		<path fill="#231F20" stroke="#000000" stroke-miterlimit="10" d="M762.184,140.91c-0.937,0-1.695,0.76-1.695,1.695
			c0,0.935,0.758,1.695,1.695,1.695s1.695-0.761,1.695-1.695C763.879,141.67,763.121,140.91,762.184,140.91L762.184,140.91z"/>
	</g>
	<g>
		<path fill="#231F20" stroke="#000000" stroke-miterlimit="10" d="M768.965,120.569c-0.937,0-1.695,0.76-1.695,1.695
			c0,0.935,0.758,1.695,1.695,1.695s1.695-0.761,1.695-1.695C770.66,121.328,769.902,120.569,768.965,120.569L768.965,120.569z"/>
	</g>
	<path fill="none" stroke="#000000" stroke-width="2" stroke-linecap="round" stroke-linejoin="round" stroke-miterlimit="10" d="
		M778.377,86.422c-4.575-3.056-10.068-4.843-15.981-4.843c-5.916,0-11.409,1.787-15.984,4.843"/>
	<path fill="none" stroke="#000000" stroke-width="2" stroke-linecap="round" stroke-linejoin="round" stroke-miterlimit="10" d="
		M774.616,92.061c-3.496-2.336-7.697-3.702-12.22-3.702s-8.724,1.367-12.223,3.702"/>
	<path fill="none" stroke="#000000" stroke-width="2" stroke-linecap="round" stroke-linejoin="round" stroke-miterlimit="10" d="
		M770.858,97.703c-2.423-1.617-5.334-2.563-8.462-2.563c-3.132,0-6.042,0.946-8.462,2.563"/>
</g>
<g opacity="0.4">
	<g>
		<g>
			<g>
				<polygon fill="#231F20" stroke="#000000" stroke-miterlimit="10" points="185.215,148.277 181.258,149.175 182.156,153.133 
					186.114,152.235 				"/>
			</g>
		</g>
		<g>
			<g>
				<polygon fill="#231F20" stroke="#000000" stroke-miterlimit="10" points="195.109,146.032 191.152,146.93 192.05,150.887 
					196.007,149.989 				"/>
			</g>
		</g>
		<g>
			<g>
				<polygon fill="#231F20" stroke="#000000" stroke-miterlimit="10" points="205.002,143.786 201.045,144.684 201.943,148.642 
					205.9,147.744 				"/>
			</g>
		</g>
		<g>
			<g>
				<polygon fill="#231F20" stroke="#000000" stroke-miterlimit="10" points="187.012,156.192 183.055,157.09 183.953,161.047 
					187.91,160.149 				"/>
			</g>
		</g>
		<g>
			<g>
				<polygon fill="#231F20" stroke="#000000" stroke-miterlimit="10" points="196.906,153.946 192.948,154.844 193.846,158.802 
					197.804,157.904 				"/>
			</g>
		</g>
		<g>
			<g>
				<polygon fill="#231F20" stroke="#000000" stroke-miterlimit="10" points="206.798,151.701 202.841,152.599 203.739,156.556 
					207.697,155.658 				"/>
			</g>
		</g>
		<g>
			<g>
				<polygon fill="#231F20" stroke="#000000" stroke-miterlimit="10" points="188.808,164.106 184.851,165.005 185.749,168.962 
					189.706,168.064 				"/>
			</g>
		</g>
		<g>
			<g>
				<polygon fill="#231F20" stroke="#000000" stroke-miterlimit="10" points="198.702,161.861 194.745,162.759 195.643,166.716 
					199.6,165.818 				"/>
			</g>
		</g>
		<g>
			<g>
				<polygon fill="#231F20" stroke="#000000" stroke-miterlimit="10" points="208.595,159.616 204.637,160.514 205.536,164.471 
					209.493,163.573 				"/>
			</g>
		</g>
	</g>
	
		<rect x="169.477" y="108.542" transform="matrix(0.9752 -0.2213 0.2213 0.9752 -22.5088 44.59)" fill="none" stroke="#000000" stroke-width="2" stroke-miterlimit="10" width="36.522" height="28.406"/>
	<path fill="none" stroke="#000000" stroke-width="2" stroke-miterlimit="10" d="M223.793,162.408
		c0.988,4.353-1.765,8.723-6.118,9.711l-35.616,8.084c-4.353,0.988-8.723-1.765-9.711-6.118l-14.371-63.317
		c-0.988-4.353,1.765-8.723,6.118-9.711l35.616-8.084c4.353-0.988,8.723,1.765,9.711,6.118L223.793,162.408z"/>
	
		<line fill="none" stroke="#000000" stroke-width="2" stroke-linecap="round" stroke-miterlimit="10" x1="161.4" y1="89.184" x2="164.095" y2="101.056"/>
</g>
<g opacity="0.4">
	<path fill="none" stroke="#000000" stroke-width="2" stroke-linecap="round" stroke-linejoin="round" stroke-miterlimit="10" d="
		M797.204,25.183c-4.273-0.745-8.434,0.34-11.702,2.682l-17.917-3.124c-2.279-3.309-5.831-5.739-10.1-6.484
		c-8.438-1.471-16.469,4.176-17.941,12.613s4.175,16.469,12.613,17.941c4.27,0.745,8.434-0.34,11.699-2.682l17.917,3.124
		c2.282,3.309,5.831,5.739,10.103,6.484c8.435,1.471,16.469-4.176,17.941-12.613S805.639,26.654,797.204,25.183z"/>
	
		<circle fill="none" stroke="#000000" stroke-width="2" stroke-linecap="round" stroke-linejoin="round" stroke-miterlimit="10" cx="795.605" cy="34.349" r="1.55"/>
	
		<circle fill="none" stroke="#000000" stroke-width="2" stroke-linecap="round" stroke-linejoin="round" stroke-miterlimit="10" cx="800.651" cy="41.526" r="1.55"/>
	<path fill="none" stroke="#000000" stroke-width="2" stroke-linecap="round" stroke-linejoin="round" stroke-miterlimit="10" d="
		M789.321,40.663c-0.701,0.493-1.667,0.324-2.16-0.377c-0.496-0.701-0.324-1.667,0.377-2.16c0.698-0.493,1.665-0.325,2.16,0.377
		C790.191,39.204,790.022,40.17,789.321,40.663z"/>
	
		<circle fill="none" stroke="#000000" stroke-width="2" stroke-linecap="round" stroke-linejoin="round" stroke-miterlimit="10" cx="793.474" cy="46.571" r="1.55"/>
	
		<line fill="none" stroke="#000000" stroke-width="2" stroke-linecap="round" stroke-linejoin="round" stroke-miterlimit="10" x1="756.153" y1="25.896" x2="754.022" y2="38.117"/>
	
		<line fill="none" stroke="#000000" stroke-width="2" stroke-linecap="round" stroke-linejoin="round" stroke-miterlimit="10" x1="761.198" y1="33.072" x2="748.976" y2="30.941"/>
	
		<line fill="none" stroke="#000000" stroke-width="2" stroke-linecap="round" stroke-linejoin="round" stroke-miterlimit="10" x1="767.771" y1="40.515" x2="770.826" y2="41.047"/>
	
		<line fill="none" stroke="#000000" stroke-width="2" stroke-linecap="round" stroke-linejoin="round" stroke-miterlimit="10" x1="776.937" y1="42.113" x2="779.992" y2="42.646"/>
	
		<rect x="772.422" y="20.165" transform="matrix(0.9851 0.1718 -0.1718 0.9851 15.5516 -133.1596)" fill="none" stroke="#000000" stroke-width="2" stroke-linecap="round" stroke-linejoin="round" stroke-miterlimit="10" width="9.304" height="6.203"/>
	<path fill="none" stroke="#000000" stroke-width="2" stroke-linecap="round" stroke-linejoin="round" stroke-miterlimit="10" d="
		M777.611,20.193l1.598-9.166c0.879-5.041-2.526-9.885-7.568-10.764l-9.166-1.598"/>
</g>
</svg>
